<svg width="155" height="156" viewBox="0 0 155 156" fill="none" xmlns="http://www.w3.org/2000/svg">
<path d="M139.034 0.251831H16.2163C7.37341 0.251831 0.25 7.37524 0.25 16.2181V33.4125C0.25 35.5004 1.84663 37.0971 3.93452 37.0971H151.315C153.403 37.0971 155 35.5004 155 33.4125V16.2181C155 7.37524 147.877 0.251831 139.034 0.251831ZM26.0417 22.359H21.129C19.0411 22.359 17.4444 20.7623 17.4444 18.6745C17.4444 16.5866 19.0411 14.9899 21.129 14.9899H26.0417C28.1296 14.9899 29.7262 16.5866 29.7262 18.6745C29.7262 20.7623 28.1296 22.359 26.0417 22.359ZM45.6925 22.359H40.7798C38.6919 22.359 37.0952 20.7623 37.0952 18.6745C37.0952 16.5866 38.6919 14.9899 40.7798 14.9899H45.6925C47.7804 14.9899 49.377 16.5866 49.377 18.6745C49.377 20.7623 47.7804 22.359 45.6925 22.359ZM134.121 22.359H92.3631C90.2752 22.359 88.6786 20.7623 88.6786 18.6745C88.6786 16.5866 90.2752 14.9899 92.3631 14.9899H134.121C136.209 14.9899 137.806 16.5866 137.806 18.6745C137.806 20.7623 136.209 22.359 134.121 22.359Z" fill="#1C75BC"/>
<path d="M104.645 107.718H114.47V89.1725L104.645 107.472V107.718Z" fill="#1C75BC"/>
<path d="M77.625 78.2416C74.1861 78.2416 71.4841 80.9436 71.4841 84.3825V110.174C71.4841 113.613 74.1861 116.315 77.625 116.315C81.0639 116.315 83.7659 113.613 83.7659 110.174V84.3825C83.7659 80.9436 81.0639 78.2416 77.625 78.2416Z" fill="#1C75BC"/>
<path d="M37.0938 107.718H46.9191V89.1725L37.0938 107.472V107.718Z" fill="#1C75BC"/>
<path d="M151.315 44.4675H3.93452C1.84663 44.4675 0.25 46.0642 0.25 48.1521V139.037C0.25 147.88 7.37341 155.003 16.2163 155.003H139.034C147.877 155.003 155 147.88 155 139.037V48.1521C155 46.0642 153.403 44.4675 151.315 44.4675ZM54.2911 115.087V120C54.2911 122.087 52.6945 123.684 50.6066 123.684C48.5187 123.684 46.922 122.087 46.922 120V115.087H33.4121C31.3242 115.087 29.7276 113.49 29.7276 111.402V106.49C29.7276 105.876 29.8504 105.261 30.2189 104.77L47.4133 72.8377C48.273 71.3639 49.8697 70.6269 51.5891 70.9954C53.3085 71.3639 54.4138 72.8377 54.4138 74.5572V107.717C56.5017 107.717 58.0983 109.313 58.0983 111.401C58.0983 113.489 56.3788 115.086 54.2911 115.086V115.087ZM91.1363 110.174C91.1363 117.666 85.1181 123.684 77.6264 123.684C70.1347 123.684 64.1165 117.666 64.1165 110.174V84.3825C64.1165 76.8905 70.1347 70.8726 77.6264 70.8726C85.1181 70.8726 91.1363 76.8908 91.1363 84.3825V110.174ZM121.842 115.087V120C121.842 122.087 120.245 123.684 118.158 123.684C116.07 123.684 114.473 122.087 114.473 120V115.087H100.963C98.8752 115.087 97.2786 113.49 97.2786 111.402V106.49C97.2786 105.876 97.4014 105.261 97.7699 104.77L114.964 72.8377C115.824 71.3639 117.421 70.6269 119.14 70.9954C120.737 71.3639 121.965 72.8377 121.965 74.5572V107.717C124.053 107.717 125.649 109.313 125.649 111.401C125.649 113.489 123.93 115.086 121.842 115.086V115.087Z" fill="#1C75BC"/>
</svg>
