<svg width="29" height="29" viewBox="0 0 29 29" fill="none" xmlns="http://www.w3.org/2000/svg">
<path fill-rule="evenodd" clip-rule="evenodd" d="M4.47379 0.354004H4.36712C3.87859 0.354004 3.45832 0.354004 3.08712 0.441471C2.51248 0.578782 1.98707 0.872503 1.56911 1.29009C1.15115 1.70767 0.856952 2.23282 0.719122 2.80734C0.633789 3.17854 0.633789 3.59667 0.633789 4.08734V9.42067C0.633789 9.9092 0.633789 10.3295 0.721256 10.7007C0.858567 11.2753 1.15229 11.8007 1.56987 12.2187C1.98746 12.6366 2.5126 12.9308 3.08712 13.0687C3.45832 13.154 3.87646 13.154 4.36712 13.154H9.70045C10.189 13.154 10.6093 13.154 10.9805 13.0665C11.5551 12.9292 12.0805 12.6355 12.4985 12.2179C12.9164 11.8003 13.2106 11.2752 13.3485 10.7007C13.4338 10.3295 13.4338 9.91134 13.4338 9.42067V4.08734C13.4338 3.5988 13.4338 3.17854 13.3463 2.80734C13.209 2.23269 12.9153 1.70728 12.4977 1.28932C12.0801 0.871361 11.555 0.577167 10.9805 0.439337C10.6093 0.354004 10.1911 0.354004 9.70045 0.354004H4.47379ZM3.58419 2.5172C3.67592 2.49587 3.81886 2.48734 4.47379 2.48734H9.59379C10.2509 2.48734 10.3917 2.49374 10.4834 2.5172C10.675 2.56303 10.8502 2.66104 10.9896 2.80037C11.1289 2.9397 11.2269 3.1149 11.2727 3.30654C11.2941 3.39614 11.3005 3.53694 11.3005 4.194V9.314C11.3005 9.97107 11.2941 10.1119 11.2706 10.2036C11.2248 10.3952 11.1267 10.5704 10.9874 10.7098C10.8481 10.8491 10.6729 10.9471 10.4813 10.9929C10.3938 11.0121 10.253 11.0207 9.59379 11.0207H4.47379C3.81672 11.0207 3.67592 11.0143 3.58419 10.9908C3.39255 10.945 3.21735 10.847 3.07802 10.7076C2.9387 10.5683 2.84068 10.3931 2.79486 10.2015C2.77566 10.114 2.76712 9.9732 2.76712 9.314V4.194C2.76712 3.53694 2.77352 3.39614 2.79699 3.3044C2.84282 3.11277 2.94083 2.93757 3.08016 2.79824C3.21949 2.65891 3.39469 2.5609 3.58632 2.51507L3.58419 2.5172ZM19.4071 0.354004H19.3005C18.8119 0.354004 18.3917 0.354004 18.0205 0.441471C17.4458 0.578782 16.9204 0.872503 16.5024 1.29009C16.0845 1.70767 15.7903 2.23282 15.6525 2.80734C15.5671 3.17854 15.5671 3.59667 15.5671 4.08734V9.42067C15.5671 9.9092 15.5671 10.3295 15.6546 10.7007C15.7919 11.2753 16.0856 11.8007 16.5032 12.2187C16.9208 12.6366 17.4459 12.9308 18.0205 13.0687C18.3917 13.154 18.8098 13.154 19.3005 13.154H24.6338C25.1223 13.154 25.5426 13.154 25.9138 13.0665C26.4884 12.9292 27.0138 12.6355 27.4318 12.2179C27.8498 11.8003 28.144 11.2752 28.2818 10.7007C28.3671 10.3295 28.3671 9.91134 28.3671 9.42067V4.08734C28.3671 3.5988 28.3671 3.17854 28.2797 2.80734C28.1423 2.23269 27.8486 1.70728 27.431 1.28932C27.0135 0.871361 26.4883 0.577167 25.9138 0.439337C25.5426 0.354004 25.1245 0.354004 24.6338 0.354004H19.4071ZM18.5175 2.5172C18.6093 2.49587 18.7522 2.48734 19.4071 2.48734H24.5271C25.1842 2.48734 25.325 2.49374 25.4167 2.5172C25.6084 2.56303 25.7836 2.66104 25.9229 2.80037C26.0622 2.9397 26.1602 3.1149 26.2061 3.30654C26.2274 3.39614 26.2338 3.53694 26.2338 4.194V9.314C26.2338 9.97107 26.2253 10.1119 26.2039 10.2036C26.1581 10.3952 26.0601 10.5704 25.9208 10.7098C25.7814 10.8491 25.6062 10.9471 25.4146 10.9929C25.325 11.0143 25.1842 11.0207 24.5271 11.0207H19.4071C18.7501 11.0207 18.6093 11.0143 18.5175 10.9908C18.3259 10.945 18.1507 10.847 18.0114 10.7076C17.872 10.5683 17.774 10.3931 17.7282 10.2015C17.709 10.114 17.7005 9.9732 17.7005 9.314V4.194C17.7005 3.53694 17.7069 3.39614 17.7303 3.3044C17.7761 3.11277 17.8742 2.93757 18.0135 2.79824C18.1528 2.65891 18.328 2.5609 18.5197 2.51507L18.5175 2.5172ZM4.36712 15.2873H9.70045C10.189 15.2873 10.6093 15.2873 10.9805 15.3748C11.5551 15.5121 12.0805 15.8058 12.4985 16.2234C12.9164 16.641 13.2106 17.1662 13.3485 17.7407C13.4338 18.1119 13.4338 18.53 13.4338 19.0207V24.354C13.4338 24.8425 13.4338 25.2628 13.3463 25.634C13.209 26.2086 12.9153 26.7341 12.4977 27.152C12.0801 27.57 11.555 27.8642 10.9805 28.002C10.6093 28.0873 10.1911 28.0873 9.70045 28.0873H4.36712C3.87859 28.0873 3.45832 28.0873 3.08712 27.9999C2.51248 27.8626 1.98707 27.5688 1.56911 27.1513C1.15115 26.7337 0.856952 26.2085 0.719122 25.634C0.633789 25.2628 0.633789 24.8447 0.633789 24.354V19.0207C0.633789 18.5321 0.633789 18.1119 0.721256 17.7407C0.858567 17.166 1.15229 16.6406 1.56987 16.2227C1.98746 15.8047 2.5126 15.5105 3.08712 15.3727C3.45832 15.2873 3.87646 15.2873 4.36712 15.2873ZM4.47379 17.4207C3.81672 17.4207 3.67592 17.4271 3.58419 17.4505C3.39255 17.4964 3.21735 17.5944 3.07802 17.7337C2.9387 17.873 2.84068 18.0482 2.79486 18.2399C2.77566 18.3273 2.76712 18.4681 2.76712 19.1273V24.2473C2.76712 24.9044 2.77352 25.0452 2.79699 25.1369C2.84282 25.3286 2.94083 25.5038 3.08016 25.6431C3.21949 25.7824 3.39469 25.8804 3.58632 25.9263C3.67592 25.9476 3.81672 25.954 4.47379 25.954H9.59379C10.2509 25.954 10.3917 25.9455 10.4834 25.9241C10.675 25.8783 10.8502 25.7803 10.9896 25.641C11.1289 25.5016 11.2269 25.3264 11.2727 25.1348C11.2941 25.0452 11.3005 24.9044 11.3005 24.2473V19.1273C11.3005 18.4703 11.2941 18.3295 11.2706 18.2377C11.2248 18.0461 11.1267 17.8709 10.9874 17.7316C10.8481 17.5922 10.6729 17.4942 10.4813 17.4484C10.3938 17.4292 10.253 17.4207 9.59379 17.4207H4.47379ZM19.4071 15.2873H19.3005C18.8119 15.2873 18.3917 15.2873 18.0205 15.3748C17.4458 15.5121 16.9204 15.8058 16.5024 16.2234C16.0845 16.641 15.7903 17.1662 15.6525 17.7407C15.5671 18.1119 15.5671 18.53 15.5671 19.0207V24.354C15.5671 24.8425 15.5671 25.2628 15.6546 25.634C15.7919 26.2086 16.0856 26.7341 16.5032 27.152C16.9208 27.57 17.4459 27.8642 18.0205 28.002C18.3917 28.0895 18.8119 28.0895 19.3005 28.0895H24.6338C25.1223 28.0895 25.5426 28.0895 25.9138 28.002C26.488 27.8643 27.013 27.5705 27.4306 27.1529C27.8481 26.7353 28.142 26.2104 28.2797 25.6361C28.3671 25.2649 28.3671 24.8447 28.3671 24.3561V19.0207C28.3671 18.5321 28.3671 18.1119 28.2797 17.7407C28.1423 17.166 27.8486 16.6406 27.431 16.2227C27.0135 15.8047 26.4883 15.5105 25.9138 15.3727C25.5426 15.2873 25.1245 15.2873 24.6338 15.2873H19.4071ZM18.5175 17.4505C18.6093 17.4292 18.7522 17.4207 19.4071 17.4207H24.5271C25.1842 17.4207 25.325 17.4271 25.4167 17.4505C25.6084 17.4964 25.7836 17.5944 25.9229 17.7337C26.0622 17.873 26.1602 18.0482 26.2061 18.2399C26.2274 18.3295 26.2338 18.4703 26.2338 19.1273V24.2473C26.2338 24.9044 26.2253 25.0452 26.2039 25.1369C26.1581 25.3286 26.0601 25.5038 25.9208 25.6431C25.7814 25.7824 25.6062 25.8804 25.4146 25.9263C25.325 25.9476 25.1842 25.954 24.5271 25.954H19.4071C18.7501 25.954 18.6093 25.9455 18.5175 25.9241C18.3259 25.8783 18.1507 25.7803 18.0114 25.641C17.872 25.5016 17.774 25.3264 17.7282 25.1348C17.709 25.0473 17.7005 24.9065 17.7005 24.2473V19.1273C17.7005 18.4703 17.7069 18.3295 17.7303 18.2377C17.7761 18.0461 17.8742 17.8709 18.0135 17.7316C18.1528 17.5922 18.328 17.4942 18.5197 17.4484L18.5175 17.4505Z" fill="#196AAB"/>
</svg>
