<svg width="21" height="23" viewBox="0 0 21 23" fill="none" xmlns="http://www.w3.org/2000/svg">
<path d="M5.17389 12.3553C5.17389 12.6411 4.94237 12.8726 4.65655 12.8726C4.37072 12.8726 4.1392 12.6411 4.1392 12.3553V7.50246L0 5.43286V16.3267L9.313 20.6649V10.0894L5.1738 8.01976L5.17389 12.3553Z" fill="#1C75BC"/>
<path d="M9.06217 4.1417L13.3513 1.75921L9.83054 0L0.639038 4.59446L4.64363 6.59675L9.06217 4.1417Z" fill="#1C75BC"/>
<path d="M17.5912 15.4595C16.6992 15.4595 15.8439 15.8139 15.2132 16.4445C14.5826 17.0752 14.2281 17.9306 14.2281 18.8225C14.2281 19.7145 14.5826 20.5698 15.2132 21.2005C15.8439 21.8312 16.6992 22.1856 17.5912 22.1856C18.4832 22.1856 19.3385 21.8312 19.9692 21.2005C20.5999 20.5699 20.9543 19.7145 20.9543 18.8225C20.9543 17.9306 20.5999 17.0752 19.9692 16.4445C19.3386 15.8139 18.4832 15.4595 17.5912 15.4595V15.4595ZM19.2494 19.7511V19.7513C19.3589 19.845 19.4244 19.9801 19.4299 20.1243C19.4355 20.2683 19.3808 20.4081 19.2788 20.5101C19.1769 20.6121 19.037 20.6667 18.893 20.6611C18.7488 20.6557 18.6137 20.5902 18.52 20.4807L17.5913 19.5546L16.6625 20.4807C16.4573 20.6566 16.1513 20.6447 15.9602 20.4536C15.7691 20.2625 15.7572 19.9565 15.9331 19.7513L16.8592 18.8225L15.9331 17.8938C15.7572 17.6886 15.7691 17.3826 15.9602 17.1915C16.1513 17.0004 16.4574 16.9885 16.6625 17.1644L17.5913 18.0905L18.52 17.1644C18.7252 16.9885 19.0312 17.0004 19.2223 17.1915C19.4134 17.3826 19.4253 17.6886 19.2494 17.8938L18.3233 18.8225L19.2494 19.7511Z" fill="#1C75BC"/>
<path d="M14.4711 2.32043L9.41084 5.12986L5.76575 7.15793L9.82988 9.18873L19.0214 4.59427L14.4711 2.32043Z" fill="#1C75BC"/>
<path d="M17.5912 14.4247C18.3132 14.4234 19.0242 14.6012 19.6608 14.942V5.43225L10.3478 10.0888V20.6643L13.2245 19.3242C13.205 19.1577 13.1946 18.9902 13.1935 18.8224C13.1935 17.656 13.6567 16.5374 14.4815 15.7127C15.3062 14.8879 16.4248 14.4247 17.5912 14.4247L17.5912 14.4247Z" fill="#1C75BC"/>
</svg>
