<svg width="25" height="25" viewBox="0 0 25 25" fill="none" xmlns="http://www.w3.org/2000/svg">
<g id="teenyicons:tick-circle-solid" clip-path="url(#clip0_412_18082)">
<path id="Vector" fill-rule="evenodd" clip-rule="evenodd" d="M0 12.5C0 9.18479 1.31696 6.00537 3.66117 3.66117C6.00537 1.31696 9.18479 0 12.5 0C15.8152 0 18.9946 1.31696 21.3388 3.66117C23.683 6.00537 25 9.18479 25 12.5C25 15.8152 23.683 18.9946 21.3388 21.3388C18.9946 23.683 15.8152 25 12.5 25C9.18479 25 6.00537 23.683 3.66117 21.3388C1.31696 18.9946 0 15.8152 0 12.5ZM11.7867 17.85L18.9833 8.85333L17.6833 7.81333L11.5467 15.4817L7.2 11.86L6.13333 13.14L11.7867 17.8517V17.85Z" fill="#196AAB"/>
</g>
<defs>
<clipPath id="clip0_412_18082">
<rect width="25" height="25" fill="white"/>
</clipPath>
</defs>
</svg>
