<svg width="16" height="15" viewBox="0 0 16 15" fill="none" xmlns="http://www.w3.org/2000/svg">
<g id="ion:filter" clip-path="url(#clip0_412_24044)">
<path id="Vector" d="M14.3281 4.92188H1.67188C1.48539 4.92188 1.30655 4.8478 1.17469 4.71593C1.04283 4.58407 0.96875 4.40523 0.96875 4.21875C0.96875 4.03227 1.04283 3.85343 1.17469 3.72157C1.30655 3.5897 1.48539 3.51563 1.67188 3.51562H14.3281C14.5146 3.51562 14.6934 3.5897 14.8253 3.72157C14.9572 3.85343 15.0312 4.03227 15.0312 4.21875C15.0312 4.40523 14.9572 4.58407 14.8253 4.71593C14.6934 4.8478 14.5146 4.92188 14.3281 4.92188ZM11.9844 8.20312H4.01562C3.82914 8.20312 3.6503 8.12905 3.51844 7.99718C3.38658 7.86532 3.3125 7.68648 3.3125 7.5C3.3125 7.31352 3.38658 7.13468 3.51844 7.00282C3.6503 6.87095 3.82914 6.79688 4.01562 6.79688H11.9844C12.1709 6.79688 12.3497 6.87095 12.4816 7.00282C12.6134 7.13468 12.6875 7.31352 12.6875 7.5C12.6875 7.68648 12.6134 7.86532 12.4816 7.99718C12.3497 8.12905 12.1709 8.20312 11.9844 8.20312ZM9.17188 11.4844H6.82812C6.64164 11.4844 6.4628 11.4103 6.33094 11.2784C6.19908 11.1466 6.125 10.9677 6.125 10.7812C6.125 10.5948 6.19908 10.4159 6.33094 10.2841C6.4628 10.1522 6.64164 10.0781 6.82812 10.0781H9.17188C9.35836 10.0781 9.5372 10.1522 9.66906 10.2841C9.80092 10.4159 9.875 10.5948 9.875 10.7812C9.875 10.9677 9.80092 11.1466 9.66906 11.2784C9.5372 11.4103 9.35836 11.4844 9.17188 11.4844Z" fill="#419E6A"/>
</g>
<defs>
<clipPath id="clip0_412_24044">
<rect width="15" height="15" fill="white" transform="translate(0.5)"/>
</clipPath>
</defs>
</svg>
