<svg width="27" height="27" viewBox="0 0 27 27" fill="none" xmlns="http://www.w3.org/2000/svg">
<circle cx="13.5" cy="13.5" r="12.5" fill="white" stroke="#B9B9B9" stroke-width="2"/>
<path d="M8.16274 19.9043H8.23745L11.6992 19.5889C12.0784 19.5511 12.4331 19.384 12.7036 19.1157L20.175 11.6444C20.465 11.338 20.6217 10.9292 20.6108 10.5075C20.5999 10.0858 20.4223 9.68564 20.1169 9.39467L17.8423 7.12006C17.5454 6.84121 17.1564 6.68121 16.7492 6.6705C16.3421 6.65978 15.9452 6.7991 15.6341 7.06195L8.16274 14.5333C7.89441 14.8039 7.72733 15.1586 7.68955 15.5378L7.33259 18.9995C7.32141 19.1211 7.33718 19.2436 7.3788 19.3584C7.42041 19.4732 7.48683 19.5774 7.57333 19.6636C7.6509 19.7405 7.7429 19.8014 7.84404 19.8427C7.94518 19.884 8.05349 19.905 8.16274 19.9043ZM16.6884 8.28227L18.9547 10.5486L17.2944 12.1674L15.0696 9.94257L16.6884 8.28227ZM9.30004 15.6789L13.9738 11.0384L16.2152 13.2798L11.5663 17.9286L9.0759 18.161L9.30004 15.6789Z" fill="#B9B9B9"/>
</svg>
