<svg width="167" height="182" viewBox="0 0 167 182" fill="none" xmlns="http://www.w3.org/2000/svg">
<path d="M160.343 101.653H30.5016C28.8686 101.663 27.4429 102.761 27.0185 104.339L12.5028 156.231L7.2763 66.8842C7.22284 66.3479 7.40753 65.8166 7.78502 65.4326C8.16735 65.0454 8.69225 64.8348 9.23659 64.851H35.9447C37.3703 64.8575 38.7134 65.5282 39.5736 66.6655L48.429 78.0612C49.1062 78.936 50.1527 79.4463 51.2593 79.4398H130.295V90.3266C130.295 92.3306 131.92 93.9555 133.924 93.9555C135.928 93.9555 137.553 92.3306 137.553 90.3266V75.8109C137.573 74.8356 137.198 73.8944 136.516 73.1977C135.834 72.5011 134.899 72.1091 133.924 72.1091H52.6362L44.9424 62.165V62.1666C42.7651 59.3785 39.4762 57.6825 35.9431 57.522H9.23501C6.67531 57.5641 4.24202 58.6366 2.48437 60.4964C0.757374 62.3336 -0.136872 64.8026 0.0170358 67.32L6.912 177.855C7.00435 178.623 7.25221 179.363 7.63779 180.033C8.31497 180.956 9.39556 181.495 10.5409 181.484H133.273C136.355 181.482 139.347 180.454 141.779 178.561C144.21 176.668 145.942 174.019 146.7 171.033L152.071 150.058C152.592 148.053 151.39 146.007 149.385 145.485C147.381 144.965 145.335 146.167 144.813 148.171L139.297 169.219C138.905 170.638 138.064 171.894 136.901 172.798C135.736 173.7 134.31 174.201 132.838 174.227H15.3349L33.2627 108.906H155.63L150.696 127.63C150.195 129.636 151.413 131.666 153.417 132.167C155.421 132.669 157.453 131.451 157.954 129.445L164.05 106.147V106.148C164.343 105.061 164.115 103.9 163.433 103.006C162.751 102.11 161.691 101.582 160.567 101.575L160.343 101.653Z" fill="#7B7B7B"/>
<path d="M80.577 153.399C79.8901 154.081 79.5029 155.009 79.5029 155.977C79.5029 156.944 79.8901 157.872 80.577 158.552C81.2347 159.254 82.1549 159.652 83.1173 159.652C84.0796 159.652 84.9998 159.254 85.6575 158.552C86.9098 157.303 88.606 156.6 90.3751 156.6C92.1442 156.6 93.8404 157.303 95.0927 158.552C95.7504 159.254 96.6707 159.652 97.633 159.652C98.5953 159.652 99.5155 159.254 100.173 158.552C100.86 157.872 101.247 156.944 101.247 155.977C101.247 155.009 100.86 154.081 100.173 153.399C97.5827 150.784 94.0559 149.313 90.3751 149.313C86.6943 149.313 83.1674 150.784 80.577 153.399Z" fill="#7B7B7B"/>
<path d="M61.3457 130.684C59.3417 130.684 57.7168 132.309 57.7168 134.313C57.7168 136.317 59.3417 137.942 61.3457 137.942H68.6036C70.6076 137.942 72.2325 136.317 72.2325 134.313C72.2325 132.309 70.6076 130.684 68.6036 130.684H61.3457Z" fill="#7B7B7B"/>
<path d="M112.15 130.684C110.146 130.684 108.521 132.309 108.521 134.313C108.521 136.317 110.146 137.942 112.15 137.942H119.408C121.412 137.942 123.037 136.317 123.037 134.313C123.037 132.309 121.412 130.684 119.408 130.684H112.15Z" fill="#7B7B7B"/>
<path d="M79.4902 60.2829C79.2034 61.6859 79.704 63.1326 80.796 64.0577C81.4375 64.5647 82.2297 64.845 83.0462 64.8547C83.5727 64.9649 84.1171 64.9649 84.6436 64.8547L104.094 55.0566C110.202 56.9651 116.567 57.9209 122.964 57.8885C147.351 57.8885 166.511 45.1142 166.511 28.857C166.511 15.43 153.664 4.18032 134.504 0.697378V0.695758C132.5 0.336104 130.583 1.66781 130.222 3.67181C129.862 5.67581 131.194 7.59396 133.198 7.95353C148.586 10.2038 159.326 18.8403 159.326 28.4215C159.326 40.251 142.706 50.1951 123.037 50.1951C116.92 50.2162 110.838 49.236 105.039 47.292C104.162 46.8934 103.156 46.8934 102.28 47.292L88.5626 54.5498L91.6829 41.8486C91.981 40.6951 91.6812 39.4687 90.8858 38.5825C88.2872 35.8301 86.8113 32.206 86.7481 28.4215C86.7481 18.6964 98.0708 9.84099 113.602 7.30074C115.598 6.96701 116.956 5.09099 116.651 3.09201C116.316 1.0961 114.441 -0.26311 112.441 0.0430474C93.0615 3.23617 79.4905 14.5588 79.4905 28.3487C79.5472 33.1766 81.2062 37.8486 84.2081 41.6298L79.4902 60.2829Z" fill="#7B7B7B"/>
<path d="M115.054 25.5197L117.884 28.4229L115.054 31.2531C113.614 32.6982 113.614 35.0343 115.054 36.4796C116.479 37.8242 118.709 37.8242 120.134 36.4796L123.037 33.5765L125.941 36.4796C127.366 37.8242 129.595 37.8242 131.021 36.4796C132.461 35.0345 132.461 32.6984 131.021 31.2531L128.191 28.4229L131.021 25.5197C131.708 24.8377 132.095 23.911 132.095 22.9422C132.095 21.9751 131.708 21.0484 131.021 20.3664C130.363 19.6649 129.443 19.2664 128.481 19.2664C127.519 19.2664 126.598 19.6649 125.941 20.3664L123.037 23.2695L120.134 20.3664C119.477 19.6649 118.556 19.2664 117.594 19.2664C116.632 19.2664 115.712 19.6649 115.054 20.3664C114.367 21.0484 113.98 21.9751 113.98 22.9422C113.98 23.911 114.367 24.8377 115.054 25.5197V25.5197Z" fill="#7B7B7B"/>
</svg>
