<svg xmlns="http://www.w3.org/2000/svg" width="225.375" height="138.767" viewBox="0 0 225.375 138.767">
    <g data-name="empty state illustration">
        <path data-name="Path 64" d="M278.152 156.638v7.906H158.118a9.6 9.6 0 0 0-8.519 5.182l-44.827 85.028a10.01 10.01 0 0 1-.533-3.066V137.1a11.92 11.92 0 0 1 11.937-11.819h46.734a11.807 11.807 0 0 1 8.353 3.462l16.624 16.624H267a11.17 11.17 0 0 1 11.15 11.268z" transform="translate(-104.239 -125.283)" style="fill:#676fa3"/>
        <path data-name="Path 65" d="M180.763 238.27h152.3a9.6 9.6 0 0 1 8.519 14.009l-35.705 68.906a9.6 9.6 0 0 1-8.519 5.182H127.912l44.331-82.916a9.6 9.6 0 0 1 8.519-5.178z" transform="translate(-117.296 -187.6)" style="fill:#676fa3"/>
    </g>
</svg>
