<svg width="226" height="139" viewBox="0 0 226 139" fill="none" xmlns="http://www.w3.org/2000/svg">
<path d="M173.913 31.357V39.263H53.879C52.1206 39.2637 50.3962 39.7474 48.8939 40.6612C47.3917 41.575 46.1692 42.8839 45.36 44.445L0.533005 129.473C0.19659 128.485 0.0167453 127.451 0 126.407V11.819C0.0266609 8.67223 1.29661 5.66365 3.53283 3.44953C5.76905 1.23541 8.7901 -0.00458822 11.937 1.27582e-05H58.671C60.2225 -3.74645e-05 61.7588 0.305692 63.192 0.899724C64.6253 1.49376 65.9274 2.36444 67.024 3.46201L83.648 20.086H162.761C164.234 20.0886 165.693 20.3827 167.052 20.9513C168.411 21.52 169.645 22.3519 170.681 23.3993C171.718 24.4467 172.537 25.6887 173.091 27.054C173.645 28.4192 173.924 29.8806 173.911 31.354L173.913 31.357Z" fill="#1C75BC"/>
<path d="M63.467 50.672H215.767C217.414 50.6735 219.032 51.0985 220.467 51.9062C221.902 52.7139 223.105 53.8771 223.961 55.284C224.816 56.6909 225.296 58.2943 225.353 59.94C225.41 61.5856 225.042 63.2183 224.286 64.681L188.581 133.587C187.772 135.148 186.549 136.457 185.047 137.371C183.545 138.285 181.82 138.768 180.062 138.769H10.616L54.947 55.853C55.7568 54.2926 56.9795 52.9846 58.4817 52.0715C59.9839 51.1584 61.7081 50.6753 63.466 50.675L63.467 50.672Z" fill="#1C75BC"/>
</svg>
