<svg width="155" height="155" viewBox="0 0 155 155" fill="none" xmlns="http://www.w3.org/2000/svg">
<path d="M47.6704 100.639H107.327L77.497 48.9751L47.6704 100.639ZM80.7265 93.4817C80.7265 95.2658 79.2802 96.7105 77.4976 96.7105C75.715 96.7105 74.2687 95.2658 74.2687 93.4817V92.3163C74.2687 90.5321 75.715 89.0874 77.4976 89.0874C79.2802 89.0874 80.7265 90.5321 80.7265 92.3163V93.4817ZM80.7265 67.8818V80.3588C80.7265 82.1429 79.2802 83.5877 77.4976 83.5877C75.715 83.5877 74.2687 82.1429 74.2687 80.3588V67.8818C74.2687 66.0977 75.715 64.6529 77.4976 64.6529C79.2802 64.6529 80.7265 66.0977 80.7265 67.8818V67.8818ZM151.118 38.0605C147.845 20.494 134.053 7.06167 116.818 3.78758C103.719 1.20898 90.443 0 77.5181 0C64.2453 0 50.9721 1.20745 37.8762 3.78758C20.2947 7.06301 7.02453 20.6663 3.74736 37.8891C-1.24912 64.0656 -1.24912 90.7604 3.74736 116.766C7.0228 134.507 20.6384 147.766 37.8762 151.041C50.9733 153.792 64.2465 155 77.5181 155C90.7898 155 103.885 153.793 116.987 151.211C134.57 147.766 147.843 134.334 151.116 116.939C156.288 90.7599 156.288 64.0643 151.117 38.0592L151.118 38.0605ZM112.964 107.099H112.921H42.0759C40.9225 107.099 39.8563 106.483 39.2796 105.484C38.6999 104.485 38.6999 103.254 39.2796 102.255L74.7028 40.9065C75.2795 39.9078 76.3458 39.2921 77.4992 39.2921C78.6526 39.2921 79.7188 39.9078 80.2955 40.9065L115.486 101.852C115.929 102.404 116.195 103.107 116.195 103.872C116.195 105.653 114.75 107.099 112.966 107.099L112.964 107.099Z" fill="#1C75BC"/>
</svg>
