<svg width="151" height="151" viewBox="0 0 151 151" fill="none" xmlns="http://www.w3.org/2000/svg">
<path d="M75.555 0.558998C55.6643 0.558998 36.5886 8.46098 22.5224 22.5264C8.45615 36.5918 0.554993 55.667 0.554993 75.559C0.554993 95.451 8.45698 114.525 22.5224 128.592C36.5878 142.658 55.663 150.559 75.555 150.559C95.447 150.559 114.521 142.657 128.588 128.592C142.654 114.526 150.555 95.451 150.555 75.559C150.555 55.667 142.653 36.5926 128.588 22.5264C114.522 8.46015 95.447 0.558998 75.555 0.558998V0.558998ZM82.963 110.973H68.843V97.0833H83.1941L82.963 110.973ZM96.6196 70.9278C94.6046 73.3885 92.2683 75.5685 89.675 77.4092L86.2035 80.1863C84.4613 81.4506 83.1647 83.2332 82.4995 85.2788C82.0216 87.092 81.7875 88.9602 81.8052 90.8346H69.0737C69.0527 87.0709 69.5984 83.3249 70.6932 79.7226C72.2239 76.8291 74.4521 74.3635 77.1761 72.5473L80.6476 69.7701C81.7165 68.9999 82.6546 68.0618 83.4248 66.9929C84.6455 65.3104 85.2946 63.2824 85.2768 61.206C85.3269 58.8018 84.5971 56.4458 83.1939 54.4924C81.8053 52.487 79.2591 51.4827 75.5552 51.4827V51.4843C74.0326 51.3422 72.4987 51.6103 71.1151 52.2626C69.7313 52.9133 68.5462 53.924 67.6855 55.1867C66.1952 57.4585 65.3911 60.1097 65.3701 62.8253H51.4808C51.7892 53.7205 54.9523 47.3165 60.9717 43.6129C65.1391 41.0457 69.9686 39.7588 74.861 39.9106C81.1919 39.6732 87.4343 41.4574 92.685 45.0014C97.5224 48.539 100.227 54.2967 99.8603 60.2791C99.9782 64.088 98.8382 67.8293 96.6198 70.9278L96.6196 70.9278Z" fill="#1C75BC"/>
</svg>
