<svg width="20" height="20" viewBox="0 0 20 20" fill="none" xmlns="http://www.w3.org/2000/svg">
<g id="octicon:location-16">
<path id="Vector" d="M15.7451 14.495L11.3263 18.915C11.1522 19.0892 10.9455 19.2274 10.7179 19.3218C10.4903 19.4161 10.2464 19.4646 10.0001 19.4646C9.75377 19.4646 9.50985 19.4161 9.28229 19.3218C9.05473 19.2274 8.84797 19.0892 8.67385 18.915L4.2551 14.495C3.50057 13.7405 2.90203 12.8449 2.49366 11.8591C2.08528 10.8734 1.87506 9.81681 1.875 8.74981C1.87494 7.68281 2.08505 6.62624 2.49332 5.64043C2.90159 4.65463 3.50003 3.75889 4.25447 3.00437C5.00892 2.24984 5.90459 1.6513 6.89035 1.24292C7.87611 0.834545 8.93265 0.624326 9.99966 0.624268C11.0667 0.62421 12.1232 0.834314 13.109 1.24258C14.0948 1.65086 14.9906 2.2493 15.7451 3.00374C16.4997 3.75823 17.0983 4.65397 17.5067 5.63981C17.915 6.62566 18.1252 7.68229 18.1252 8.74937C18.1252 9.81645 17.915 10.8731 17.5067 11.8589C17.0983 12.8448 16.4997 13.7405 15.7451 14.495ZM14.4201 4.32999C13.2478 3.15773 11.6579 2.49792 10.0001 2.49792C8.34228 2.49792 6.75236 3.15648 5.5801 4.32874C4.40784 5.501 3.74927 7.09092 3.74927 8.74874C3.74927 10.4066 4.40784 11.9965 5.5801 13.1687L10.0001 17.5875L14.4201 13.17C15.0006 12.5896 15.4612 11.9005 15.7754 11.1421C16.0895 10.3838 16.2513 9.57089 16.2513 8.74999C16.2513 7.92909 16.0895 7.11623 15.7754 6.35784C15.4612 5.59945 15.0006 4.91038 14.4201 4.32999ZM10.0001 11.25C9.66718 11.2575 9.3361 11.1985 9.02632 11.0763C8.71653 10.9541 8.43428 10.7713 8.19613 10.5385C7.95798 10.3057 7.76874 10.0277 7.63951 9.72081C7.51028 9.4139 7.44366 9.08426 7.44358 8.75126C7.4435 8.41825 7.50994 8.08858 7.63902 7.7816C7.7681 7.47463 7.95721 7.19653 8.19524 6.96365C8.43327 6.73076 8.71543 6.54778 9.02516 6.42544C9.33488 6.30311 9.66592 6.24388 9.99885 6.25124C10.6521 6.26569 11.2736 6.53527 11.7306 7.00229C12.1875 7.46931 12.4434 8.09664 12.4436 8.75001C12.4437 9.40337 12.1881 10.0308 11.7314 10.4981C11.2748 10.9653 10.6533 11.2352 10.0001 11.25Z" fill="white"/>
</g>
</svg>
