<svg width="24" height="24" viewBox="0 0 24 24" fill="none" xmlns="http://www.w3.org/2000/svg">
<g id="ph:user">
<path id="Vector" d="M21.6484 19.8746C20.2206 17.4062 18.0203 15.6362 15.4525 14.7971C16.7226 14.041 17.7094 12.8888 18.2614 11.5176C18.8134 10.1463 18.8999 8.63175 18.5078 7.20652C18.1157 5.78129 17.2666 4.52418 16.0909 3.62824C14.9151 2.7323 13.4778 2.24707 11.9996 2.24707C10.5215 2.24707 9.08414 2.7323 7.90842 3.62824C6.73269 4.52418 5.88358 5.78129 5.49146 7.20652C5.09935 8.63175 5.18592 10.1463 5.73788 11.5176C6.28984 12.8888 7.27668 14.041 8.54683 14.7971C5.97902 15.6352 3.77871 17.4052 2.35089 19.8746C2.29853 19.96 2.2638 20.055 2.24875 20.154C2.2337 20.253 2.23863 20.3541 2.26326 20.4511C2.28789 20.5482 2.33171 20.6394 2.39214 20.7192C2.45257 20.7991 2.52838 20.8661 2.6151 20.9162C2.70183 20.9663 2.79771 20.9985 2.89709 21.0109C2.99647 21.0234 3.09733 21.0158 3.19373 20.9886C3.29012 20.9614 3.3801 20.9152 3.45835 20.8527C3.5366 20.7902 3.60154 20.7126 3.64933 20.6246C5.41558 17.5721 8.53746 15.7496 11.9996 15.7496C15.4618 15.7496 18.5837 17.5721 20.35 20.6246C20.3977 20.7126 20.4627 20.7902 20.5409 20.8527C20.6192 20.9152 20.7092 20.9614 20.8056 20.9886C20.902 21.0158 21.0028 21.0234 21.1022 21.0109C21.2016 20.9985 21.2975 20.9663 21.3842 20.9162C21.4709 20.8661 21.5467 20.7991 21.6072 20.7192C21.6676 20.6394 21.7114 20.5482 21.736 20.4511C21.7607 20.3541 21.7656 20.253 21.7505 20.154C21.7355 20.055 21.7008 19.96 21.6484 19.8746ZM6.74964 8.99962C6.74964 7.96127 7.05755 6.94624 7.63443 6.08288C8.21131 5.21952 9.03124 4.54661 9.99056 4.14925C10.9499 3.75189 12.0055 3.64793 13.0239 3.8505C14.0423 4.05307 14.9777 4.55308 15.712 5.28731C16.4462 6.02154 16.9462 6.957 17.1488 7.9754C17.3513 8.9938 17.2474 10.0494 16.85 11.0087C16.4527 11.968 15.7797 12.788 14.9164 13.3648C14.053 13.9417 13.038 14.2496 11.9996 14.2496C10.6077 14.2481 9.27322 13.6945 8.28898 12.7103C7.30473 11.726 6.75113 10.3916 6.74964 8.99962Z" fill="white"/>
</g>
</svg>
