<svg width="29" height="29" viewBox="0 0 29 29" fill="none" xmlns="http://www.w3.org/2000/svg">
<g id="fluent:food-16-filled">
<path id="Vector" d="M7.25 2.71875C7.25 2.4784 7.15452 2.24789 6.98457 2.07793C6.81461 1.90798 6.5841 1.8125 6.34375 1.8125C6.1034 1.8125 5.87289 1.90798 5.70293 2.07793C5.53298 2.24789 5.4375 2.4784 5.4375 2.71875V8.15625C5.43729 9.20084 5.79799 10.2134 6.45857 11.0226C7.11914 11.8318 8.03901 12.388 9.0625 12.5969V26.2812C9.0625 26.5216 9.15798 26.7521 9.32793 26.9221C9.49789 27.092 9.7284 27.1875 9.96875 27.1875C10.2091 27.1875 10.4396 27.092 10.6096 26.9221C10.7795 26.7521 10.875 26.5216 10.875 26.2812V12.5969C11.8985 12.388 12.8184 11.8318 13.4789 11.0226C14.1395 10.2134 14.5002 9.20084 14.5 8.15625V2.71875C14.5 2.4784 14.4045 2.24789 14.2346 2.07793C14.0646 1.90798 13.8341 1.8125 13.5938 1.8125C13.3534 1.8125 13.1229 1.90798 12.9529 2.07793C12.783 2.24789 12.6875 2.4784 12.6875 2.71875V8.15625C12.6878 8.71872 12.5136 9.26743 12.189 9.72676C11.8644 10.1861 11.4053 10.5334 10.875 10.7209V2.71875C10.875 2.4784 10.7795 2.24789 10.6096 2.07793C10.4396 1.90798 10.2091 1.8125 9.96875 1.8125C9.7284 1.8125 9.49789 1.90798 9.32793 2.07793C9.15798 2.24789 9.0625 2.4784 9.0625 2.71875V10.7209C8.5322 10.5334 8.07311 10.1861 7.74849 9.72676C7.42387 9.26743 7.24971 8.71872 7.25 8.15625V2.71875ZM19.9375 26.2812V14.5H17.2188C16.9784 14.5 16.7479 14.4045 16.5779 14.2346C16.408 14.0646 16.3125 13.8341 16.3125 13.5938V6.34375C16.3125 5.14206 16.9034 4.01831 17.7099 3.20994C18.5183 2.40338 19.6421 1.8125 20.8438 1.8125C21.0841 1.8125 21.3146 1.90798 21.4846 2.07793C21.6545 2.24789 21.75 2.4784 21.75 2.71875V26.2812C21.75 26.5216 21.6545 26.7521 21.4846 26.9221C21.3146 27.092 21.0841 27.1875 20.8438 27.1875C20.6034 27.1875 20.3729 27.092 20.2029 26.9221C20.033 26.7521 19.9375 26.5216 19.9375 26.2812Z" fill="white"/>
</g>
</svg>
