<?xml version="1.0" encoding="iso-8859-1"?>
<!-- Generator: Adobe Illustrator 19.0.0, SVG Export Plug-In . SVG Version: 6.00 Build 0)  -->
<svg version="1.1" id="Capa_1" xmlns="http://www.w3.org/2000/svg" xmlns:xlink="http://www.w3.org/1999/xlink" x="0px" y="0px"
	 viewBox="0 0 512.003 512.003" style="enable-background:new 0 0 512.003 512.003;" xml:space="preserve">
<g>
	<g>
		<path d="M477.958,262.633c-2.06-4.215-2.06-9.049,0-13.263l19.096-39.065c10.632-21.751,2.208-47.676-19.178-59.023l-38.41-20.38
			c-4.144-2.198-6.985-6.11-7.796-10.729l-7.512-42.829c-4.183-23.846-26.241-39.87-50.208-36.479l-43.053,6.09
			c-4.647,0.656-9.242-0.838-12.613-4.099l-31.251-30.232c-17.401-16.834-44.661-16.835-62.061,0L193.72,42.859
			c-3.372,3.262-7.967,4.753-12.613,4.099l-43.053-6.09c-23.975-3.393-46.025,12.633-50.208,36.479l-7.512,42.827
			c-0.811,4.62-3.652,8.531-7.795,10.73l-38.41,20.38c-21.386,11.346-29.81,37.273-19.178,59.024l19.095,39.064
			c2.06,4.215,2.06,9.049,0,13.263l-19.096,39.064c-10.632,21.751-2.208,47.676,19.178,59.023l38.41,20.38
			c4.144,2.198,6.985,6.11,7.796,10.729l7.512,42.829c3.808,21.708,22.422,36.932,43.815,36.93c2.107,0,4.245-0.148,6.394-0.452
			l43.053-6.09c4.643-0.659,9.241,0.838,12.613,4.099l31.251,30.232c8.702,8.418,19.864,12.626,31.03,12.625
			c11.163-0.001,22.332-4.209,31.03-12.625l31.252-30.232c3.372-3.261,7.968-4.751,12.613-4.099l43.053,6.09
			c23.978,3.392,46.025-12.633,50.208-36.479l7.513-42.827c0.811-4.62,3.652-8.531,7.795-10.73l38.41-20.38
			c21.386-11.346,29.81-37.273,19.178-59.024L477.958,262.633z M196.941,123.116c29.852,0,54.139,24.287,54.139,54.139
			s-24.287,54.139-54.139,54.139s-54.139-24.287-54.139-54.139S167.089,123.116,196.941,123.116z M168.997,363.886
			c-2.883,2.883-6.662,4.325-10.44,4.325s-7.558-1.441-10.44-4.325c-5.766-5.766-5.766-15.115,0-20.881l194.889-194.889
			c5.765-5.766,15.115-5.766,20.881,0c5.766,5.766,5.766,15.115,0,20.881L168.997,363.886z M315.061,388.888
			c-29.852,0-54.139-24.287-54.139-54.139s24.287-54.139,54.139-54.139c29.852,0,54.139,24.287,54.139,54.139
			S344.913,388.888,315.061,388.888z"/>
	</g>
</g>
<g>
	<g>
		<path d="M315.061,310.141c-13.569,0-24.609,11.039-24.609,24.608s11.039,24.608,24.609,24.608
			c13.569,0,24.608-11.039,24.608-24.608S328.63,310.141,315.061,310.141z"/>
	</g>
</g>
<g>
	<g>
		<path d="M196.941,152.646c-13.569,0-24.608,11.039-24.608,24.608c0,13.569,11.039,24.609,24.608,24.609
			c13.569,0,24.609-11.039,24.609-24.609C221.549,163.686,210.51,152.646,196.941,152.646z"/>
	</g>
</g>
<g>
</g>
<g>
</g>
<g>
</g>
<g>
</g>
<g>
</g>
<g>
</g>
<g>
</g>
<g>
</g>
<g>
</g>
<g>
</g>
<g>
</g>
<g>
</g>
<g>
</g>
<g>
</g>
<g>
</g>
</svg>
