<svg width="21" height="20" viewBox="0 0 21 20" fill="none" xmlns="http://www.w3.org/2000/svg">
<g id="ic:round-plus">
<path id="Vector" d="M15.4993 10.8317H11.3327V14.9984C11.3327 15.2194 11.2449 15.4313 11.0886 15.5876C10.9323 15.7439 10.7204 15.8317 10.4993 15.8317C10.2783 15.8317 10.0664 15.7439 9.91009 15.5876C9.75381 15.4313 9.66602 15.2194 9.66602 14.9984V10.8317H5.49935C5.27834 10.8317 5.06637 10.7439 4.91009 10.5876C4.75381 10.4313 4.66602 10.2194 4.66602 9.99837C4.66602 9.77736 4.75381 9.5654 4.91009 9.40912C5.06637 9.25284 5.27834 9.16504 5.49935 9.16504H9.66602V4.99837C9.66602 4.77736 9.75381 4.5654 9.91009 4.40912C10.0664 4.25284 10.2783 4.16504 10.4993 4.16504C10.7204 4.16504 10.9323 4.25284 11.0886 4.40912C11.2449 4.5654 11.3327 4.77736 11.3327 4.99837V9.16504H15.4993C15.7204 9.16504 15.9323 9.25284 16.0886 9.40912C16.2449 9.5654 16.3327 9.77736 16.3327 9.99837C16.3327 10.2194 16.2449 10.4313 16.0886 10.5876C15.9323 10.7439 15.7204 10.8317 15.4993 10.8317Z" fill="#196AAB"/>
</g>
</svg>
