<svg width="20" height="24" viewBox="0 0 20 24" fill="none" xmlns="http://www.w3.org/2000/svg">
<path d="M11.817 1.50194C11.844 1.43484 11.8837 1.37337 11.9343 1.32094L13.1079 0.16905C13.3369 -0.0561491 13.7091 -0.0563497 13.9385 0.168447C14.168 0.393446 14.1682 0.758278 13.9391 0.983482L13.7666 1.15163H15.8803C16.9287 1.15163 17.8974 1.70067 18.4216 2.59162C18.9458 3.48277 18.9458 4.58066 18.4216 5.4716C17.8974 6.36275 16.9287 6.91159 15.8803 6.91159H14.7067C14.3825 6.91159 14.1199 6.65385 14.1199 6.33565C14.1199 6.01763 14.3825 5.7597 14.7067 5.7597H15.8803C16.5093 5.7597 17.0906 5.43044 17.4052 4.89565C17.7196 4.36106 17.7196 3.70237 17.4052 3.16777C17.0906 2.63302 16.5093 2.30372 15.8803 2.30372H13.776L13.9486 2.47308C14.1776 2.69827 14.1774 3.06311 13.9479 3.28811C13.7185 3.51291 13.3466 3.51271 13.1175 3.28751L11.9439 2.13562C11.8733 2.06149 11.8238 1.97049 11.8006 1.87165C11.7949 1.84895 11.7906 1.82584 11.7875 1.80254C11.7689 1.70169 11.7791 1.59757 11.817 1.50194ZM18.9201 10.5333L9.99984 7.25008L6.37312 8.58639L15.2934 11.8696L18.9201 10.5333ZM10.5867 14.8303V24L20 20.5324V11.3627L10.5867 14.8303ZM4.7066 9.19689L1.07987 10.5332L10.0001 13.8164L13.6268 12.4801L4.7066 9.19689ZM0 20.5327L9.4133 23.9886V14.8303L0 11.3627V20.5327Z" fill="#1C75BC"/>
</svg>
