<svg width="378" height="378" viewBox="0 0 378 378" fill="none" xmlns="http://www.w3.org/2000/svg">
<path d="M297.86 96.27C297.86 93.1333 295.172 90.4458 292.036 90.4458H217.22L215.876 85.9653C214.083 80.5903 209.603 77.0044 203.778 77.0044H195.716C192.579 77.0044 189.891 79.6919 189.891 82.8286C189.891 85.9653 192.579 88.6528 195.716 88.6528H203.778C203.778 88.6528 204.227 88.6528 204.227 89.102L219.457 139.278C221.696 147.341 229.313 152.719 237.379 152.719H279.043C289.348 152.719 297.859 144.207 297.859 133.903L297.86 96.27ZM286.212 134.348C286.212 137.934 283.075 141.067 279.493 141.067H237.829C234.692 141.067 232.005 139.274 231.11 136.137L220.805 101.641H286.211L286.212 134.348Z" fill="#1C75BC"/>
<path d="M221.7 160.78C214.981 160.78 209.157 166.155 209.157 173.323C209.157 180.491 214.532 185.866 221.7 185.866C228.419 185.866 234.243 180.491 234.243 173.323C234.243 166.155 228.423 160.78 221.7 160.78V160.78Z" fill="#1C75BC"/>
<path d="M285.77 160.78C279.051 160.78 273.227 166.155 273.227 173.323C273.227 180.491 278.602 185.866 285.77 185.866C292.489 185.866 298.313 180.491 298.313 173.323C298.313 166.155 292.489 160.78 285.77 160.78V160.78Z" fill="#1C75BC"/>
<path d="M249.93 0.391022C179.594 0.391022 122.25 57.735 122.25 128.071C122.25 161.223 134.793 191.239 155.402 214.087L133.898 235.591L128.968 230.661C124.039 225.732 116.425 225.732 111.495 230.661L7.5553 334.601C2.6256 339.531 0.387299 345.8 0.387299 352.523C0.387299 359.242 3.0748 365.515 7.5553 370.445C12.485 375.375 18.7543 377.613 25.4773 377.613C32.1961 377.613 38.4693 375.375 43.3993 370.445L146.889 266.955C151.819 262.026 151.819 254.412 146.889 249.482L141.96 244.553L163.464 223.049C186.312 243.658 216.327 256.201 249.48 256.201C319.816 256.201 377.16 198.857 377.16 128.521C377.16 58.1806 320.265 0.390625 249.93 0.390625L249.93 0.391022ZM138.38 257.991L34.89 361.481C29.515 366.856 21.449 366.856 16.074 361.481C13.3865 358.794 12.0428 355.657 12.0428 352.075C12.0428 348.489 13.3866 345.356 16.074 342.669L119.564 239.179H120.013H120.462L138.384 257.101C138.83 257.542 138.83 257.991 138.381 257.991L138.38 257.991ZM249.93 244.104C186.313 244.104 134.34 192.135 134.34 128.514C134.34 64.897 186.309 12.924 249.93 12.924C313.547 12.924 365.52 64.893 365.52 128.514C365.516 192.131 313.547 244.104 249.93 244.104V244.104Z" fill="#1C75BC"/>
<path d="M331.02 66.25C328.782 63.5625 325.196 63.1133 322.508 64.9062C319.821 67.1445 319.372 70.7304 321.164 73.4179C348.492 109.258 344.906 159.883 313.102 191.688C281.293 223.497 230.223 227.079 194.832 199.75C192.144 197.512 188.559 198.407 186.32 201.094C184.082 203.782 184.976 207.368 187.664 209.606C206.031 223.493 227.984 230.661 249.488 230.661C275.922 230.661 301.902 220.356 321.617 200.645C358.351 164.36 361.937 106.567 331.023 66.2449L331.02 66.25Z" fill="#1C75BC"/>
<path d="M311.75 46.98C271.43 16.07 213.637 20.101 177.35 55.9409C141.51 91.7809 137.479 149.574 168.389 190.341C169.733 191.685 171.526 192.579 173.319 192.579C174.663 192.579 176.006 192.13 176.905 191.235C179.592 189.442 180.041 185.411 178.249 182.724C150.921 146.884 154.507 96.2587 186.311 64.4537C218.12 32.6447 269.19 29.0627 304.581 56.3912C307.268 58.6295 310.854 57.735 313.093 55.0474C314.878 52.8091 314.432 48.7779 311.745 46.9849L311.75 46.98Z" fill="#1C75BC"/>
</svg>
