<svg width="20" height="20" viewBox="0 0 20 20" fill="none" xmlns="http://www.w3.org/2000/svg">
<g id="Icon/Outline/search">
<path id="Icon (Stroke)" fill-rule="evenodd" clip-rule="evenodd" d="M8.33334 3.33341C5.57191 3.33341 3.33334 5.57199 3.33334 8.33342C3.33334 11.0948 5.57191 13.3334 8.33334 13.3334C11.0948 13.3334 13.3333 11.0948 13.3333 8.33342C13.3333 5.57199 11.0948 3.33341 8.33334 3.33341ZM1.66667 8.33342C1.66667 4.65152 4.65144 1.66675 8.33334 1.66675C12.0152 1.66675 15 4.65152 15 8.33342C15 9.87401 14.4774 11.2925 13.5999 12.4215L18.0893 16.9108C18.4147 17.2363 18.4147 17.7639 18.0893 18.0893C17.7638 18.4148 17.2362 18.4148 16.9107 18.0893L12.4214 13.6C11.2925 14.4775 9.87393 15.0001 8.33334 15.0001C4.65144 15.0001 1.66667 12.0153 1.66667 8.33342Z" fill="#196AAB"/>
</g>
</svg>
