<svg width="150" height="150" viewBox="0 0 150 150" fill="none" xmlns="http://www.w3.org/2000/svg">
<circle cx="75" cy="75" r="75" fill="#DDDDDD"/>
<path fill-rule="evenodd" clip-rule="evenodd" d="M86.6908 75.7136C99.8195 80.3336 109.354 92.5104 110 106.989C99.2582 109.569 87.4276 111 75 111C62.5724 111 50.742 109.569 40 106.989C40.6459 92.5104 50.1803 80.3322 63.3092 75.7136C66.8038 77.5345 70.7802 78.566 74.9989 78.566C79.2185 78.565 83.1939 77.5344 86.6887 75.7136H86.6908ZM75.0016 39C84.0648 39 91.4125 46.3056 91.4125 55.3177C91.4125 64.3299 84.0652 71.6355 75.0016 71.6355C65.938 71.6355 58.5907 64.3299 58.5907 55.3177C58.5907 46.3056 65.938 39 75.0016 39V39Z" fill="#F0F0F0"/>
</svg>
