<svg width="24" height="24" viewBox="0 0 24 24" fill="none" xmlns="http://www.w3.org/2000/svg">
<g id="ant-design:whats-app-outlined">
<path id="Vector" d="M16.7223 14.0602C16.4668 13.9289 15.1941 13.3055 14.9574 13.2211C14.7207 13.132 14.5473 13.0898 14.3762 13.3523C14.2027 13.6125 13.7105 14.1914 13.5559 14.3672C13.4059 14.5406 13.2535 14.5617 12.998 14.4328C11.4793 13.6734 10.4832 13.0781 9.48242 11.3602C9.21758 10.9031 9.74727 10.9359 10.2418 9.94922C10.3262 9.77578 10.284 9.62813 10.2184 9.49688C10.1527 9.36563 9.63711 8.09531 9.42148 7.57734C9.21289 7.07344 8.99727 7.14375 8.84023 7.13437C8.69023 7.125 8.51914 7.125 8.3457 7.125C8.17227 7.125 7.89336 7.19063 7.65664 7.44609C7.41992 7.70625 6.75195 8.33203 6.75195 9.60234C6.75195 10.8727 7.67773 12.1031 7.8043 12.2766C7.93555 12.45 9.62539 15.0563 12.2199 16.1789C13.8605 16.8867 14.5027 16.9477 15.323 16.8258C15.8223 16.7508 16.8512 16.2023 17.0645 15.5953C17.2777 14.9906 17.2777 14.4727 17.2145 14.3648C17.1512 14.25 16.9777 14.1844 16.7223 14.0602Z" fill="white"/>
<path id="Vector_2" d="M21.6845 7.93125C21.1548 6.67266 20.3954 5.54297 19.4275 4.57266C18.4595 3.60469 17.3298 2.84297 16.0689 2.31563C14.7798 1.77422 13.4111 1.5 12.0001 1.5H11.9533C10.5329 1.50703 9.15716 1.78828 7.86341 2.34141C6.6142 2.87578 5.49388 3.63516 4.53529 4.60312C3.5767 5.57109 2.82435 6.69609 2.30404 7.95C1.76498 9.24844 1.4931 10.6289 1.50013 12.0492C1.50716 13.6758 1.89623 15.2906 2.62513 16.7344V20.2969C2.62513 20.8922 3.10795 21.375 3.70326 21.375H7.2681C8.71185 22.1039 10.3267 22.493 11.9533 22.5H12.0025C13.4064 22.5 14.7681 22.2281 16.0501 21.6961C17.304 21.1734 18.4314 20.4234 19.397 19.4648C20.365 18.5063 21.1267 17.3859 21.6587 16.1367C22.2119 14.843 22.4931 13.4672 22.5001 12.0469C22.5072 10.6195 22.2306 9.23438 21.6845 7.93125ZM18.1431 18.1969C16.5001 19.8234 14.3204 20.7188 12.0001 20.7188H11.9603C10.547 20.7117 9.1431 20.3602 7.90326 19.6992L7.70638 19.5938H4.40638V16.2938L4.30091 16.0969C3.63998 14.857 3.28841 13.4531 3.28138 12.0398C3.27201 9.70312 4.16498 7.50937 5.80326 5.85703C7.4392 4.20469 9.62591 3.29062 11.9626 3.28125H12.0025C13.1744 3.28125 14.3111 3.50859 15.3822 3.95859C16.4275 4.39687 17.365 5.02734 18.1712 5.83359C18.9751 6.6375 19.6079 7.57734 20.0462 8.62266C20.5009 9.70547 20.7283 10.8539 20.7236 12.0398C20.7095 14.3742 19.7931 16.5609 18.1431 18.1969Z" fill="white"/>
</g>
</svg>
